<svg xmlns="http://www.w3.org/2000/svg" width="1920" height="1080" viewBox="0 0 1920 1080" fill="none">
  <defs>
    <linearGradient id="bg" x1="200" y1="0" x2="1720" y2="1080" gradientUnits="userSpaceOnUse">
      <stop offset="0" stop-color="#06111F"/>
      <stop offset="0.42" stop-color="#0B1B2E"/>
      <stop offset="1" stop-color="#03070D"/>
    </linearGradient>
    <radialGradient id="glowRed" cx="0" cy="0" r="1" gradientUnits="userSpaceOnUse" gradientTransform="translate(480 290) rotate(90) scale(260 420)">
      <stop offset="0" stop-color="#D64545" stop-opacity="0.42"/>
      <stop offset="1" stop-color="#D64545" stop-opacity="0"/>
    </radialGradient>
    <radialGradient id="glowBlue" cx="0" cy="0" r="1" gradientUnits="userSpaceOnUse" gradientTransform="translate(1460 260) rotate(90) scale(260 420)">
      <stop offset="0" stop-color="#4DB6FF" stop-opacity="0.34"/>
      <stop offset="1" stop-color="#4DB6FF" stop-opacity="0"/>
    </radialGradient>
    <radialGradient id="spot" cx="0" cy="0" r="1" gradientUnits="userSpaceOnUse" gradientTransform="translate(960 540) rotate(90) scale(290 520)">
      <stop offset="0" stop-color="#F4E7B7" stop-opacity="0.22"/>
      <stop offset="1" stop-color="#F4E7B7" stop-opacity="0"/>
    </radialGradient>
    <linearGradient id="paper" x1="300" y1="260" x2="560" y2="540" gradientUnits="userSpaceOnUse">
      <stop offset="0" stop-color="#E9E1CB" stop-opacity="0.13"/>
      <stop offset="1" stop-color="#B7A889" stop-opacity="0.05"/>
    </linearGradient>
    <linearGradient id="paper2" x1="1360" y1="230" x2="1620" y2="520" gradientUnits="userSpaceOnUse">
      <stop offset="0" stop-color="#E9E1CB" stop-opacity="0.11"/>
      <stop offset="1" stop-color="#B7A889" stop-opacity="0.04"/>
    </linearGradient>
    <filter id="blur24" x="-20%" y="-20%" width="140%" height="140%">
      <feGaussianBlur stdDeviation="24"/>
    </filter>
    <filter id="blur8" x="-20%" y="-20%" width="140%" height="140%">
      <feGaussianBlur stdDeviation="8"/>
    </filter>
    <pattern id="grid" width="120" height="120" patternUnits="userSpaceOnUse">
      <path d="M120 0H0V120" stroke="#9CB4D0" stroke-opacity="0.08" stroke-width="1"/>
      <path d="M0 60H120M60 0V120" stroke="#9CB4D0" stroke-opacity="0.05" stroke-width="1"/>
    </pattern>
    <pattern id="dots" width="32" height="32" patternUnits="userSpaceOnUse">
      <circle cx="4" cy="4" r="1.1" fill="#D6E6FF" fill-opacity="0.12"/>
    </pattern>
  </defs>

  <rect width="1920" height="1080" fill="url(#bg)"/>
  <rect width="1920" height="1080" fill="url(#grid)"/>
  <rect width="1920" height="1080" fill="url(#dots)" opacity="0.65"/>

  <g filter="url(#blur24)">
    <ellipse cx="480" cy="290" rx="320" ry="220" fill="url(#glowRed)"/>
    <ellipse cx="1460" cy="260" rx="320" ry="220" fill="url(#glowBlue)"/>
    <ellipse cx="960" cy="540" rx="380" ry="280" fill="url(#spot)"/>
  </g>

  <g opacity="0.95">
    <path d="M0 690C220 650 340 640 520 690C720 748 930 760 1140 718C1350 675 1520 650 1920 700V1080H0V690Z" fill="#02050A"/>
    <path d="M0 738C230 706 380 710 550 750C720 792 930 790 1160 748C1390 705 1590 700 1920 748V1080H0V738Z" fill="#07111B" opacity="0.9"/>
  </g>

  <g opacity="0.65">
    <path d="M160 700V600H210V700" stroke="#C8D7EA" stroke-opacity="0.08" stroke-width="28"/>
    <path d="M240 700V520H285V700" stroke="#C8D7EA" stroke-opacity="0.07" stroke-width="18"/>
    <path d="M330 700V565H388V700" stroke="#C8D7EA" stroke-opacity="0.09" stroke-width="26"/>
    <path d="M460 700V480H520V700" stroke="#C8D7EA" stroke-opacity="0.08" stroke-width="34"/>
    <path d="M560 700V548H615V700" stroke="#C8D7EA" stroke-opacity="0.07" stroke-width="24"/>
    <path d="M1410 700V530H1460V700" stroke="#C8D7EA" stroke-opacity="0.08" stroke-width="28"/>
    <path d="M1515 700V470H1570V700" stroke="#C8D7EA" stroke-opacity="0.07" stroke-width="36"/>
    <path d="M1628 700V560H1682V700" stroke="#C8D7EA" stroke-opacity="0.08" stroke-width="22"/>
    <path d="M1738 700V590H1795V700" stroke="#C8D7EA" stroke-opacity="0.07" stroke-width="24"/>
  </g>

  <g opacity="0.5">
    <path d="M220 290L360 220L520 250L620 190L720 230L820 180L930 260L1040 215L1170 280L1310 200L1440 250L1560 190L1700 260" stroke="#E5E8F0" stroke-opacity="0.08" stroke-width="2" stroke-dasharray="12 14"/>
    <path d="M180 390L320 330L450 360L590 300L690 350L800 300L920 360L1060 320L1180 390L1320 320L1460 360L1640 300" stroke="#8DB7E8" stroke-opacity="0.09" stroke-width="2" stroke-dasharray="6 16"/>
  </g>

  <g opacity="0.9">
    <g transform="translate(220 240) rotate(-10)">
      <rect x="0" y="0" width="260" height="320" rx="16" fill="url(#paper)" stroke="#F2E7C4" stroke-opacity="0.16"/>
      <rect x="22" y="24" width="112" height="16" rx="8" fill="#F0D98B" fill-opacity="0.24"/>
      <rect x="22" y="56" width="202" height="10" rx="5" fill="#D9E7F7" fill-opacity="0.10"/>
      <rect x="22" y="80" width="180" height="10" rx="5" fill="#D9E7F7" fill-opacity="0.08"/>
      <rect x="22" y="104" width="210" height="10" rx="5" fill="#D9E7F7" fill-opacity="0.08"/>
      <rect x="22" y="136" width="220" height="126" rx="10" fill="#02070B" fill-opacity="0.22"/>
      <path d="M38 238L85 202L118 214L158 178L216 206" stroke="#F04747" stroke-opacity="0.48" stroke-width="3"/>
      <circle cx="85" cy="202" r="8" fill="#F04747" fill-opacity="0.7"/>
      <circle cx="158" cy="178" r="8" fill="#4DB6FF" fill-opacity="0.7"/>
      <path d="M84 202L158 178" stroke="#F4E7B7" stroke-opacity="0.55" stroke-width="1.5" stroke-dasharray="6 6"/>
      <rect x="22" y="280" width="140" height="12" rx="6" fill="#D9E7F7" fill-opacity="0.10"/>
    </g>
    <g transform="translate(1420 200) rotate(12)">
      <rect x="0" y="0" width="310" height="360" rx="18" fill="url(#paper2)" stroke="#F2E7C4" stroke-opacity="0.14"/>
      <rect x="24" y="26" width="162" height="18" rx="9" fill="#8FD4FF" fill-opacity="0.20"/>
      <rect x="24" y="62" width="224" height="10" rx="5" fill="#D9E7F7" fill-opacity="0.08"/>
      <rect x="24" y="86" width="180" height="10" rx="5" fill="#D9E7F7" fill-opacity="0.08"/>
      <rect x="24" y="112" width="250" height="10" rx="5" fill="#D9E7F7" fill-opacity="0.08"/>
      <rect x="24" y="150" width="260" height="148" rx="12" fill="#02070B" fill-opacity="0.22"/>
      <circle cx="92" cy="210" r="44" stroke="#8FD4FF" stroke-opacity="0.42" stroke-width="4"/>
      <circle cx="92" cy="210" r="18" fill="#8FD4FF" fill-opacity="0.26"/>
      <path d="M134 176L236 126" stroke="#F04747" stroke-opacity="0.42" stroke-width="3"/>
      <path d="M136 176L238 248" stroke="#F4E7B7" stroke-opacity="0.34" stroke-width="2" stroke-dasharray="5 7"/>
      <rect x="24" y="320" width="142" height="12" rx="6" fill="#D9E7F7" fill-opacity="0.10"/>
    </g>
  </g>

  <g opacity="0.8">
    <path d="M480 710C610 640 686 616 806 596C920 578 1000 522 1064 454" stroke="#F04747" stroke-opacity="0.46" stroke-width="5" stroke-linecap="round"/>
    <path d="M1460 706C1340 644 1266 612 1148 596C1028 580 940 528 870 452" stroke="#8FD4FF" stroke-opacity="0.40" stroke-width="5" stroke-linecap="round"/>
    <path d="M610 690C760 650 854 610 960 538C1070 462 1198 416 1370 364" stroke="#F4E7B7" stroke-opacity="0.28" stroke-width="3" stroke-dasharray="10 10"/>
  </g>

  <g opacity="0.9">
    <circle cx="960" cy="540" r="132" stroke="#E8D59E" stroke-opacity="0.22" stroke-width="3"/>
    <circle cx="960" cy="540" r="210" stroke="#8DB7E8" stroke-opacity="0.10" stroke-width="2" stroke-dasharray="14 16"/>
    <circle cx="960" cy="540" r="318" stroke="#F04747" stroke-opacity="0.08" stroke-width="2" stroke-dasharray="22 20"/>
    <path d="M960 380V700M800 540H1120M846 426L1074 654M1074 426L846 654" stroke="#F4E7B7" stroke-opacity="0.10" stroke-width="2"/>
    <circle cx="960" cy="540" r="14" fill="#F4E7B7" fill-opacity="0.25"/>
    <circle cx="960" cy="540" r="64" fill="#F4E7B7" fill-opacity="0.06"/>
  </g>

  <g opacity="0.7">
    <path d="M360 860C520 780 640 758 788 768C914 776 1030 824 1172 824C1314 824 1436 790 1600 720" stroke="#C7D7EC" stroke-opacity="0.12" stroke-width="2"/>
    <path d="M320 900C520 820 668 800 820 816C984 834 1086 890 1248 892C1420 894 1570 848 1740 786" stroke="#C7D7EC" stroke-opacity="0.07" stroke-width="2" stroke-dasharray="8 12"/>
  </g>

  <g opacity="0.55">
    <circle cx="390" cy="410" r="6" fill="#F04747"/>
    <circle cx="480" cy="476" r="6" fill="#F04747"/>
    <circle cx="610" cy="350" r="6" fill="#8FD4FF"/>
    <circle cx="1450" cy="370" r="6" fill="#8FD4FF"/>
    <circle cx="1540" cy="470" r="6" fill="#F04747"/>
    <circle cx="1360" cy="330" r="6" fill="#F4E7B7"/>
    <circle cx="930" cy="460" r="5" fill="#F4E7B7"/>
    <circle cx="1008" cy="612" r="5" fill="#8FD4FF"/>
  </g>

  <g opacity="0.12">
    <path d="M0 140H1920" stroke="#F8FBFF" stroke-width="1"/>
    <path d="M0 940H1920" stroke="#F8FBFF" stroke-width="1"/>
    <path d="M96 0V1080" stroke="#F8FBFF" stroke-width="1"/>
    <path d="M1824 0V1080" stroke="#F8FBFF" stroke-width="1"/>
  </g>
</svg>
